<svg width="20" height="18" viewBox="0 0 20 18" fill="none" xmlns="http://www.w3.org/2000/svg">
<path d="M19.6 8.97824C19.6 9.59032 19.1275 10.0712 18.5692 10.0712H3.96512L9.67788 15.58C10.1074 15.9735 10.1074 16.673 9.72083 17.0665C9.33425 17.5037 8.68996 17.5037 8.26043 17.1102L0.700696 9.76521C0.48593 9.5466 0.400024 9.28428 0.400024 8.97824C0.400024 8.71592 0.48593 8.45359 0.700696 8.23499L8.26043 0.889961C8.68996 0.496478 9.33425 0.496478 9.72083 0.933682C10.1074 1.32717 10.1074 2.02669 9.67788 2.42018L3.96512 7.92895H18.5692C19.1705 7.92895 19.6 8.40987 19.6 8.97824Z" fill="#333333"/>
</svg>
